# xmcd CD database file
#
# Track frame offsets:
#	150
#	50786
#	92458
#	126634
#	156039
#
# Disc length: 2658 seconds
#
# Revision: 0
# Processed by: cddbd v1.5PL3 Copyright (c) Steve Scherf et al.
# Submitted via: CDex 1.51
#
DISCID=3f0a6005
DTITLE=none - ネイチャーサウンド・リラクゼーション? 川のせせらぎ
DYEAR=2003
DGENRE=Other
TTITLE0=二つのヴァイオリン協奏曲
TTITLE1=ヘンデルのラルゴ
TTITLE2=楽興の時
TTITLE3=ウィーンの森の物語
TTITLE4=タイスの瞑想曲
EXTD=YEAR: 2003
EXTT0=
EXTT1=
EXTT2=
EXTT3=
EXTT4=
PLAYORDER=
